# Blender 4.2.3 LTS
# www.blender.org
mtllib nave.mtl
o Cube
v 1.000000 1.000000 -1.000000
v 1.000000 -1.000000 -5.842982
v 1.000000 -1.000000 1.066362
v -1.000000 1.000000 -1.000000
v -1.000000 -1.000000 -5.842982
v -1.000000 -1.000000 1.066362
v 1.000000 -1.000000 4.279344
v -1.000000 -1.000000 4.279344
v 0.413755 0.413755 4.638202
v 0.413755 -0.413755 4.638202
v -0.413755 0.413755 4.638202
v -0.413755 -0.413755 4.638202
v 1.000000 1.000000 1.066362
v -1.000000 1.000000 1.066362
v 1.000000 1.000000 4.279344
v -1.000000 1.000000 4.279344
v 1.000000 1.000000 1.066362
v -1.000000 1.000000 1.066362
v 1.000000 1.000000 4.279344
v -1.000000 1.000000 4.279344
v 1.000000 1.000000 1.066362
v -1.000000 1.000000 1.066362
v 1.000000 1.000000 4.279344
v -1.000000 1.000000 4.279344
v 1.000000 1.204194 1.066362
v -1.000000 1.204194 1.066362
v 1.000000 1.204194 4.279344
v -1.000000 1.204194 4.279344
v 1.000000 1.204194 1.066362
v -0.034295 1.204194 1.322763
v 1.000000 1.204194 1.066362
v -1.000000 1.204194 1.066362
v -1.000000 1.204194 1.066362
v -0.039786 1.204194 1.322763
v 1.000000 1.204194 4.279344
v 1.000000 1.204194 4.279344
v 0.202524 1.204194 4.198818
v -1.000000 1.204194 4.279344
v -0.276605 1.204194 4.198818
v -1.000000 1.204194 4.279344
v 1.000000 1.204194 1.066362
v 1.000000 1.204194 1.066362
v 1.000000 1.204194 1.066362
v -1.000000 1.204194 1.066362
v -1.000000 1.204194 1.066362
v -1.000000 1.204194 1.066362
v 1.000000 1.204194 4.279344
v 1.000000 1.204194 4.279344
v 1.000000 1.204194 4.279344
v -1.000000 1.204194 4.279344
v -1.000000 1.204194 4.279344
v -1.000000 1.204194 4.279344
v -0.034295 1.188083 1.322763
v -0.039786 1.188083 1.322763
v 0.202524 2.901280 4.198818
v -0.276605 2.901280 4.198818
v -0.039786 1.196139 1.322763
v -0.034295 1.196139 1.322763
v -0.276605 2.052737 4.198818
v 0.202524 2.052737 4.198818
v 0.202524 2.901280 4.583547
v -0.276605 2.901280 4.583547
v -0.276605 2.896512 4.583547
v 0.202524 2.896512 4.583547
v 0.413755 0.413755 4.740386
v 0.413755 -0.413755 4.740386
v -0.413755 0.413755 4.740386
v -0.413755 -0.413755 4.740386
v 1.682961 1.656134 4.880198
v 1.682961 -1.656134 4.880198
v -1.682961 1.656134 4.880198
v -1.682961 -1.656134 4.880198
v 1.682961 1.656134 4.983016
v 1.682961 -1.656134 4.983016
v -1.682961 1.656134 4.983016
v -1.682961 -1.656134 4.983016
v -1.682961 -1.656134 4.983016
v -1.682961 1.656134 4.983016
v 1.682961 1.656134 4.983016
v 1.682961 -1.656134 4.983016
v 4.616932 0.815850 3.840789
v 4.614433 0.815850 4.279344
v 4.614433 1.000000 3.853928
v 4.614433 1.000000 4.279344
v 4.614433 1.000000 3.843428
v 4.614433 1.000000 4.279344
v 4.614433 1.000000 4.279344
v -4.415350 0.863053 3.688107
v -4.415350 0.863053 4.279344
v -4.415350 1.235610 3.688107
v -4.415350 1.231495 4.279344
v -4.415350 1.239134 3.688107
v -4.415350 1.238122 4.279344
v -4.415350 1.238874 3.688107
v -4.415350 1.238874 4.279344
v -4.262592 0.779725 3.570845
v -4.262592 0.779725 4.279344
v -4.262592 1.238874 4.279344
v -4.262592 1.238874 4.279344
v -4.262592 1.000000 3.570845
v -4.262592 1.000000 3.570845
v -4.262592 1.238874 4.279344
v -4.262592 1.238874 3.570845
v 4.423003 1.000000 3.706291
v 4.423003 1.000000 3.696347
v 4.423003 0.719678 3.696347
v 4.423003 0.719678 4.279344
v 4.423003 1.000000 4.279344
v 4.614433 1.271797 3.853928
v 4.614433 1.271797 4.279344
v 4.614433 1.271797 3.843428
v 4.614433 1.271797 4.279344
v 4.614433 1.271797 4.279344
v 4.423003 1.271797 3.706291
v 4.423003 1.271797 3.696347
v 4.423003 1.271797 4.279344
v 4.614433 1.000000 3.850997
v 4.614433 1.000000 3.850997
v 4.614433 1.000000 3.850997
v 4.423003 1.000000 3.701786
v 4.614433 1.271797 3.850997
v 4.614433 1.271797 3.850997
v 4.614433 1.271797 3.850997
v 4.423003 1.271797 3.701786
v -4.251593 0.773725 3.562402
v -4.251593 1.000000 4.279344
v -4.251593 1.000000 3.562402
v -4.251593 1.000000 3.562402
v -4.251593 1.000000 3.562402
v -4.251593 0.773725 4.279344
v -4.251593 1.000000 4.279344
v -4.251593 1.000000 4.279344
v -4.415350 1.234335 4.277517
v -4.415350 1.231495 4.277517
v -4.415350 1.238122 4.277517
v -4.415350 1.238874 4.277517
v -4.262592 1.229578 4.277517
v -4.262592 1.238874 4.274277
v 4.605113 0.983942 4.260181
vn -0.0000 1.0000 -0.0000
vn -0.6089 -0.0000 -0.7932
vn -1.0000 -0.0000 -0.0000
vn -0.0000 -1.0000 -0.0000
vn 1.0000 -0.0000 -0.0000
vn -0.0000 0.9243 -0.3817
vn -0.0000 0.5221 0.8529
vn 0.5973 -0.0000 -0.8020
vn -0.5221 -0.0000 0.8529
vn -0.0000 -0.5221 0.8529
vn 0.5221 -0.0000 0.8529
vn -0.0000 -0.0000 1.0000
vn -0.0000 -0.0000 -1.0000
vn -0.4789 -0.8779 -0.0000
vn -0.0000 0.8591 -0.5118
vn 0.9966 -0.0000 0.0821
vn 0.9966 -0.0000 -0.0821
vn -0.0000 -0.4149 0.9099
vn -0.0000 -0.1118 -0.9937
vn 0.1095 -0.0000 -0.9940
vn -0.0000 0.1118 -0.9937
vn -0.1095 -0.0000 -0.9940
vn 0.9999 0.0135 0.0057
vn 0.4489 -0.8936 0.0026
vn 0.6088 -0.0000 0.7933
vn 0.9989 0.0460 -0.0000
vn -0.6089 -0.0000 -0.7933
vn 0.4489 -0.8936 -0.0000
vn 0.6093 -0.0000 -0.7930
vn -0.6107 -0.0000 0.7919
vn 0.6148 -0.0000 -0.7887
vn 0.0102 0.3291 0.9443
vn 0.0049 -1.0000 -0.0000
vn 0.0002 0.0049 1.0000
vn 0.6091 0.0196 -0.7928
vn -0.9966 -0.0000 -0.0821
vn -0.9966 -0.0000 0.0821
vn 0.4443 -0.8959 -0.0000
vn 0.0212 -0.0000 0.9998
vn 0.0022 0.0041 1.0000
vn 0.0984 -0.0693 0.9927
vt 0.875000 0.500000
vt 0.625000 0.750000
vt 0.625000 0.500000
vt 0.625000 0.000000
vt 0.375000 0.000000
vt 0.625000 0.250000
vt 0.375000 0.250000
vt 0.375000 0.500000
vt 0.125000 0.750000
vt 0.125000 0.500000
vt 0.375000 0.750000
vt 0.875000 0.750000
vt 0.551719 0.823281
vt 0.801719 0.750000
vt 0.551719 0.000000
vt 0.198281 0.750000
vt 0.448281 0.823281
vt 0.842950 0.750000
vt 0.657050 0.750000
vt 0.657050 0.750000
vt 0.842950 0.750000
vt 0.657050 0.750000
vt 0.842950 0.750000
vt 0.842950 0.750000
vt 0.448281 0.000000
vt 0.448281 0.926719
vt 0.551719 0.926719
vt 0.564064 0.750000
vt 0.625000 0.750000
vt 0.524312 0.750000
vt 0.575633 0.000000
vt 0.375000 0.000000
vt 0.875000 0.750000
vt 0.875000 0.750000
vt 0.575636 0.000000
vt 0.000000 0.000000
vt 0.577153 0.000000
vt 0.577149 0.000000
s 0
usemtl Material
f 4/1/1 17/2/1 1/3/1
f 100/4/2 88/5/2 92/4/2
f 6/5/3 4/6/3 5/7/3
f 2/8/4 6/9/4 5/10/4
f 1/3/5 3/11/5 2/8/5
f 4/6/6 2/8/6 5/7/6
f 20/12/7 9/13/7 19/2/7
f 3/11/4 8/9/4 6/9/4
f 105/2/8 81/11/8 106/11/8
f 11/14/1 65/13/1 9/13/1
f 8/5/9 11/15/9 20/4/9
f 7/11/10 12/16/10 8/9/10
f 19/2/11 10/17/11 7/11/11
f 24/12/3 26/12/3 22/12/3
f 23/2/12 28/12/12 24/12/12
f 21/2/5 27/2/5 23/2/5
f 22/12/13 25/2/13 21/2/13
f 14/12/1 17/2/1 18/12/1
f 15/2/1 20/12/1 19/2/1
f 99/12/12 95/12/12 91/12/12
f 112/2/1 121/2/1 122/2/1
f 22/12/1 13/2/1 14/12/1
f 23/2/1 16/12/1 15/2/1
f 97/9/14 88/9/14 96/9/14
f 21/2/1 15/2/1 13/2/1
f 31/2/1 47/2/1 41/2/1
f 57/18/12 53/19/12 58/20/12
f 46/12/1 25/2/1 26/12/1
f 35/2/1 52/12/1 48/2/1
f 40/12/1 44/12/1 50/12/1
f 42/2/1 27/2/1 25/2/1
f 49/2/1 28/12/1 27/2/1
f 51/12/1 26/12/1 28/12/1
f 29/2/1 30/19/1 31/2/1
f 32/12/1 33/12/1 34/21/1
f 35/2/1 36/2/1 37/22/1
f 38/12/1 39/23/1 40/12/1
f 41/2/1 42/2/1 43/2/1
f 44/12/1 45/12/1 46/12/1
f 47/2/1 48/2/1 49/2/1
f 50/12/1 51/12/1 52/12/1
f 32/12/1 30/19/1 29/2/1
f 37/22/1 38/12/1 35/2/1
f 34/21/1 40/12/1 39/23/1
f 36/2/1 30/19/1 37/22/1
f 44/12/1 32/12/1 45/12/1
f 31/2/1 43/2/1 29/2/1
f 47/2/1 35/2/1 48/2/1
f 40/12/1 52/12/1 38/12/1
f 42/2/1 45/12/1 43/2/1
f 48/2/1 51/12/1 49/2/1
f 50/12/1 46/12/1 51/12/1
f 49/2/1 41/2/1 47/2/1
f 32/12/1 43/2/1 45/12/1
f 54/21/15 55/22/15 53/19/15
f 57/18/16 56/23/16 54/21/16
f 55/22/5 64/22/5 60/22/5
f 60/22/17 53/19/17 55/22/17
f 37/22/17 58/20/17 60/22/17
f 37/22/12 59/24/12 39/23/12
f 34/21/16 59/24/16 57/18/16
f 34/21/12 58/20/12 30/19/12
f 64/22/12 62/23/12 63/24/12
f 56/23/1 61/22/1 55/22/1
f 56/23/3 63/24/3 62/23/3
f 60/22/18 63/24/18 59/24/18
f 66/17/19 72/16/19 68/16/19
f 12/25/3 67/15/3 11/15/3
f 10/17/4 68/16/4 12/16/4
f 9/13/5 66/17/5 10/17/5
f 71/14/1 79/13/1 69/13/1
f 65/13/20 70/17/20 66/17/20
f 67/14/21 69/13/21 65/13/21
f 68/25/22 71/15/22 67/15/22
f 73/13/12 76/26/12 74/17/12
f 72/25/3 78/15/3 71/15/3
f 70/17/4 77/16/4 72/16/4
f 69/13/5 80/17/5 70/17/5
f 76/26/1 78/27/1 77/26/1
f 73/13/1 80/17/1 79/13/1
f 75/27/1 79/13/1 78/27/1
f 74/17/1 77/26/1 80/17/1
f 85/2/23 82/11/23 81/11/23
f 108/28/4 118/2/4 86/2/4
f 15/2/1 87/2/1 84/2/1
f 108/28/12 82/11/12 86/2/12
f 15/2/1 83/2/1 104/29/1
f 107/11/24 81/11/24 82/11/24
f 15/2/1 108/28/1 84/30/1
f 88/5/3 93/4/3 92/4/3
f 90/12/5 93/12/5 91/12/5
f 95/12/3 90/12/3 91/12/3
f 101/31/25 92/4/25 90/4/25
f 102/4/3 137/32/3 97/32/3
f 102/4/13 91/4/13 93/4/13
f 103/12/2 90/12/2 94/12/2
f 98/33/1 94/12/1 95/12/1
f 131/33/26 103/12/26 98/33/26
f 129/34/27 101/12/27 103/12/27
f 132/4/1 99/4/1 102/4/1
f 132/4/12 97/32/12 130/32/12
f 128/35/1 100/4/1 101/4/1
f 130/9/14 96/9/14 125/9/14
f 126/12/1 98/33/1 99/33/1
f 127/4/27 96/5/27 100/4/27
f 7/11/28 106/11/28 107/11/28
f 19/2/12 107/11/12 108/28/12
f 17/2/1 104/29/1 105/2/1
f 17/2/29 106/11/29 3/11/29
f 114/29/1 111/2/1 115/2/1
f 109/2/1 112/2/1 111/2/1
f 84/2/3 109/2/3 83/2/3
f 83/2/30 114/29/30 104/29/30
f 104/29/3 115/2/3 105/2/3
f 84/30/1 118/30/1 117/30/1
f 105/2/29 111/2/29 85/2/29
f 85/2/5 112/2/5 86/2/5
f 117/30/1 122/30/1 121/30/1
f 120/28/31 122/2/31 118/2/31
f 117/2/1 123/2/1 121/2/1
f 116/36/1 122/36/1 124/36/1
f 84/2/1 119/2/1 117/2/1
f 113/36/1 121/36/1 123/36/1
f 116/36/3 120/36/3 108/36/3
f 113/36/3 119/36/3 87/36/3
f 18/4/2 125/32/2 127/4/2
f 16/12/1 131/33/1 126/12/1
f 8/9/14 125/9/14 6/9/14
f 14/4/1 127/4/1 128/35/1
f 20/4/12 130/32/12 8/5/12
f 20/4/1 126/37/1 132/4/1
f 22/12/1 128/12/1 129/34/1
f 24/12/1 129/34/1 131/33/1
f 138/4/32 133/5/32 137/32/32
f 102/4/33 135/4/33 138/4/33
f 89/9/34 137/9/34 133/9/34
f 93/4/5 133/5/5 135/4/5
f 91/12/5 135/12/5 93/12/5
f 91/12/5 136/12/5 95/12/5
f 108/36/12 112/36/12 116/36/12
f 4/1/1 18/12/1 17/2/1
f 100/4/2 96/5/2 88/5/2
f 6/5/3 18/4/3 4/6/3
f 2/8/4 3/11/4 6/9/4
f 1/3/5 17/2/5 3/11/5
f 4/6/6 1/3/6 2/8/6
f 20/12/7 11/14/7 9/13/7
f 3/11/4 7/11/4 8/9/4
f 105/2/35 85/2/35 81/11/35
f 11/14/1 67/14/1 65/13/1
f 8/5/9 12/25/9 11/15/9
f 7/11/10 10/17/10 12/16/10
f 19/2/11 9/13/11 10/17/11
f 24/12/3 28/12/3 26/12/3
f 23/2/12 27/2/12 28/12/12
f 21/2/5 25/2/5 27/2/5
f 22/12/13 26/12/13 25/2/13
f 14/12/1 13/2/1 17/2/1
f 15/2/1 16/12/1 20/12/1
f 99/12/1 98/33/1 95/12/1
f 112/2/1 110/2/1 121/2/1
f 22/12/1 21/2/1 13/2/1
f 23/2/1 24/12/1 16/12/1
f 97/9/14 89/9/14 88/9/14
f 21/2/1 23/2/1 15/2/1
f 31/2/1 36/2/1 47/2/1
f 57/18/12 54/21/12 53/19/12
f 46/12/1 42/2/1 25/2/1
f 35/2/1 38/12/1 52/12/1
f 40/12/1 33/12/1 44/12/1
f 42/2/1 49/2/1 27/2/1
f 49/2/1 51/12/1 28/12/1
f 51/12/1 46/12/1 26/12/1
f 32/12/1 34/21/1 30/19/1
f 37/22/1 39/23/1 38/12/1
f 34/21/1 33/12/1 40/12/1
f 36/2/1 31/2/1 30/19/1
f 44/12/1 33/12/1 32/12/1
f 31/2/1 41/2/1 43/2/1
f 47/2/1 36/2/1 35/2/1
f 40/12/1 50/12/1 52/12/1
f 42/2/1 46/12/1 45/12/1
f 48/2/1 52/12/1 51/12/1
f 50/12/1 44/12/1 46/12/1
f 49/2/1 42/2/1 41/2/1
f 32/12/1 29/2/1 43/2/1
f 54/21/15 56/23/15 55/22/15
f 57/18/36 59/24/36 56/23/36
f 55/22/5 61/22/5 64/22/5
f 60/22/37 58/20/37 53/19/37
f 37/22/37 30/19/37 58/20/37
f 37/22/12 60/22/12 59/24/12
f 34/21/36 39/23/36 59/24/36
f 34/21/12 57/18/12 58/20/12
f 64/22/12 61/22/12 62/23/12
f 56/23/1 62/23/1 61/22/1
f 56/23/3 59/24/3 63/24/3
f 60/22/18 64/22/18 63/24/18
f 66/17/19 70/17/19 72/16/19
f 12/25/3 68/25/3 67/15/3
f 10/17/4 66/17/4 68/16/4
f 9/13/5 65/13/5 66/17/5
f 71/14/1 78/14/1 79/13/1
f 65/13/20 69/13/20 70/17/20
f 67/14/21 71/14/21 69/13/21
f 68/25/22 72/25/22 71/15/22
f 73/13/12 75/27/12 76/26/12
f 72/25/3 77/25/3 78/15/3
f 70/17/4 80/17/4 77/16/4
f 69/13/5 79/13/5 80/17/5
f 76/26/1 75/27/1 78/27/1
f 73/13/1 74/17/1 80/17/1
f 75/27/1 73/13/1 79/13/1
f 74/17/1 76/26/1 77/26/1
f 85/2/5 86/2/5 82/11/5
f 108/28/4 120/28/4 118/2/4
f 15/2/1 23/2/1 87/2/1
f 108/28/12 107/11/12 82/11/12
f 104/29/1 13/2/1 15/2/1
f 15/2/1 84/2/1 83/2/1
f 107/11/38 106/11/38 81/11/38
f 15/2/1 19/2/1 108/28/1
f 108/28/1 86/30/1 84/30/1
f 88/5/3 89/5/3 93/4/3
f 90/12/5 92/12/5 93/12/5
f 95/12/3 94/12/3 90/12/3
f 101/31/1 100/4/1 92/4/1
f 102/4/3 138/4/3 137/32/3
f 102/4/1 99/38/1 91/4/1
f 103/12/2 101/12/2 90/12/2
f 98/33/1 103/12/1 94/12/1
f 131/33/26 129/34/26 103/12/26
f 129/34/1 128/12/1 101/12/1
f 132/4/1 126/37/1 99/4/1
f 132/4/12 102/4/12 97/32/12
f 128/35/1 127/4/1 100/4/1
f 130/9/14 97/9/14 96/9/14
f 126/12/1 131/33/1 98/33/1
f 127/4/2 125/32/2 96/5/2
f 7/11/28 3/11/28 106/11/28
f 19/2/12 7/11/12 107/11/12
f 17/2/1 13/2/1 104/29/1
f 17/2/29 105/2/29 106/11/29
f 114/29/1 109/2/1 111/2/1
f 109/2/1 110/2/1 112/2/1
f 84/2/3 110/2/3 109/2/3
f 83/2/30 109/2/30 114/29/30
f 104/29/3 114/29/3 115/2/3
f 84/30/1 86/30/1 118/30/1
f 105/2/29 115/2/29 111/2/29
f 85/2/5 111/2/5 112/2/5
f 117/30/1 118/30/1 122/30/1
f 120/28/31 124/28/31 122/2/31
f 117/2/1 119/2/1 123/2/1
f 116/36/1 112/36/1 122/36/1
f 84/2/1 87/2/1 119/2/1
f 113/36/1 110/36/1 121/36/1
f 116/36/3 124/36/3 120/36/3
f 113/36/3 123/36/3 119/36/3
f 18/4/2 6/5/2 125/32/2
f 16/12/1 24/12/1 131/33/1
f 8/9/14 130/9/14 125/9/14
f 14/4/1 18/4/1 127/4/1
f 20/4/12 132/4/12 130/32/12
f 20/4/1 16/4/1 126/37/1
f 22/12/1 14/12/1 128/12/1
f 24/12/1 22/12/1 129/34/1
f 138/4/39 135/4/39 133/5/39
f 102/4/33 93/4/33 135/4/33
f 89/9/40 97/9/40 137/9/40
f 93/4/5 89/5/5 133/5/5
f 91/12/5 134/12/5 135/12/5
f 91/12/5 134/12/5 136/12/5
f 108/36/41 139/36/41 112/36/41
